<svg width="105" height="24" viewBox="0 0 105 24" fill="none" xmlns="http://www.w3.org/2000/svg">
<path d="M0.056 11.736C0.056 9.51733 0.536 7.544 1.496 5.816C2.456 4.06667 3.78933 2.712 5.496 1.752C7.224 0.770665 9.176 0.279999 11.352 0.279999C14.0187 0.279999 16.3013 0.983999 18.2 2.392C20.0987 3.8 21.368 5.72 22.008 8.152H15.992C15.544 7.21333 14.904 6.49867 14.072 6.008C13.2613 5.51733 12.3333 5.272 11.288 5.272C9.60267 5.272 8.23733 5.85867 7.192 7.032C6.14667 8.20533 5.624 9.77333 5.624 11.736C5.624 13.6987 6.14667 15.2667 7.192 16.44C8.23733 17.6133 9.60267 18.2 11.288 18.2C12.3333 18.2 13.2613 17.9547 14.072 17.464C14.904 16.9733 15.544 16.2587 15.992 15.32H22.008C21.368 17.752 20.0987 19.672 18.2 21.08C16.3013 22.4667 14.0187 23.16 11.352 23.16C9.176 23.16 7.224 22.68 5.496 21.72C3.78933 20.7387 2.456 19.384 1.496 17.656C0.536 15.928 0.056 13.9547 0.056 11.736ZM34.407 23.196C32.559 23.196 30.8603 22.7667 29.311 21.908C27.7803 21.0493 26.5577 19.8547 25.643 18.324C24.747 16.7747 24.299 15.0387 24.299 13.116C24.299 11.1933 24.747 9.46667 25.643 7.936C26.5577 6.40533 27.7803 5.21067 29.311 4.352C30.8603 3.49333 32.559 3.064 34.407 3.064C36.255 3.064 37.9443 3.49333 39.475 4.352C41.0243 5.21067 42.2377 6.40533 43.115 7.936C44.011 9.46667 44.459 11.1933 44.459 13.116C44.459 15.0387 44.011 16.7747 43.115 18.324C42.219 19.8547 41.0057 21.0493 39.475 21.908C37.9443 22.7667 36.255 23.196 34.407 23.196ZM34.407 18.828C35.975 18.828 37.2257 18.3053 38.159 17.26C39.111 16.2147 39.587 14.8333 39.587 13.116C39.587 11.38 39.111 9.99867 38.159 8.972C37.2257 7.92667 35.975 7.404 34.407 7.404C32.8203 7.404 31.551 7.91733 30.599 8.944C29.6657 9.97067 29.199 11.3613 29.199 13.116C29.199 14.852 29.6657 16.2427 30.599 17.288C31.551 18.3147 32.8203 18.828 34.407 18.828ZM59.9187 3.344V7.18H51.9107V11.324H57.9027V15.048H51.9107V23H47.1227V3.344H59.9187ZM75.2312 3.344V7.18H67.2232V11.324H73.2152V15.048H67.2232V23H62.4352V3.344H75.2312ZM82.5357 7.18V11.156H88.9477V14.852H82.5357V19.164H89.7877V23H77.7477V3.344H89.7877V7.18H82.5357ZM97.6842 7.18V11.156H104.096V14.852H97.6842V19.164H104.936V23H92.8962V3.344H104.936V7.18H97.6842Z" fill="#FFBF0F"/>
</svg>
