<svg width="24" height="24" viewBox="0 0 24 24" fill="none" xmlns="http://www.w3.org/2000/svg">
<path d="M18 5.18357C17.0831 4.30383 15.991 3.60629 14.7875 3.13159C13.584 2.65689 12.2931 2.41453 10.99 2.41863C5.53 2.41863 1.08 6.6468 1.08 11.8346C1.08 13.4974 1.54 15.1126 2.4 16.5379L1 21.4216L6.25 20.1104C7.7 20.861 9.33 21.2601 10.99 21.2601C16.45 21.2601 20.9 17.0319 20.9 11.8441C20.9 9.32622 19.87 6.96035 18 5.18357ZM10.99 19.6639C9.51 19.6639 8.06 19.2838 6.79 18.5712L6.49 18.4002L3.37 19.1793L4.2 16.2908L4 15.9963C3.17755 14.7488 2.74092 13.3067 2.74 11.8346C2.74 7.52094 6.44 4.00538 10.98 4.00538C13.18 4.00538 15.25 4.82251 16.8 6.30474C17.5676 7.03053 18.1759 7.89391 18.5896 8.84481C19.0033 9.7957 19.2142 10.8152 19.21 11.8441C19.23 16.1578 15.53 19.6639 10.99 19.6639ZM15.51 13.8109C15.26 13.6969 14.04 13.1268 13.82 13.0413C13.59 12.9653 13.43 12.9273 13.26 13.1553C13.09 13.3929 12.62 13.9249 12.48 14.077C12.34 14.2385 12.19 14.2575 11.94 14.134C11.69 14.02 10.89 13.7634 9.95 12.9653C9.21 12.3382 8.72 11.5686 8.57 11.331C8.43 11.0935 8.55 10.97 8.68 10.8465C8.79 10.7419 8.93 10.5709 9.05 10.4379C9.17 10.3049 9.22 10.2004 9.3 10.0483C9.38 9.88681 9.34 9.75379 9.28 9.63977C9.22 9.52575 8.72 8.36657 8.52 7.8915C8.32 7.43542 8.11 7.49243 7.96 7.48293H7.48C7.31 7.48293 7.05 7.53994 6.82 7.77748C6.6 8.01501 5.96 8.5851 5.96 9.74429C5.96 10.9035 6.85 12.0246 6.97 12.1767C7.09 12.3382 8.72 14.7136 11.2 15.7302C11.79 15.9773 12.25 16.1198 12.61 16.2243C13.2 16.4048 13.74 16.3763 14.17 16.3193C14.65 16.2528 15.64 15.7492 15.84 15.1981C16.05 14.6471 16.05 14.1815 15.98 14.077C15.91 13.9725 15.76 13.9249 15.51 13.8109Z" fill="white"/>
</svg>
