<svg width="25" height="24" viewBox="0 0 25 24" fill="none" xmlns="http://www.w3.org/2000/svg">
<path d="M12.9 4C13.755 4 14.632 4.022 15.482 4.058L16.486 4.106L17.447 4.163L18.347 4.224L19.169 4.288C20.0612 4.35589 20.9008 4.73643 21.54 5.3626C22.1791 5.98877 22.5768 6.8204 22.663 7.711L22.703 8.136L22.778 9.046C22.848 9.989 22.9 11.017 22.9 12C22.9 12.983 22.848 14.011 22.778 14.954L22.703 15.864L22.663 16.289C22.5768 17.1798 22.179 18.0115 21.5396 18.6377C20.9002 19.2639 20.0604 19.6443 19.168 19.712L18.348 19.775L17.448 19.837L16.486 19.894L15.482 19.942C14.6219 19.9793 13.761 19.9986 12.9 20C12.039 19.9986 11.1782 19.9793 10.318 19.942L9.31402 19.894L8.35302 19.837L7.45302 19.775L6.63102 19.712C5.73884 19.6441 4.89922 19.2636 4.26007 18.6374C3.62091 18.0112 3.22322 17.1796 3.13702 16.289L3.09702 15.864L3.02202 14.954C2.94586 13.9711 2.90516 12.9858 2.90002 12C2.90002 11.017 2.95202 9.989 3.02202 9.046L3.09702 8.136L3.13702 7.711C3.22318 6.82055 3.62074 5.98905 4.25969 5.36291C4.89864 4.73676 5.73802 4.35612 6.63002 4.288L7.45102 4.224L8.35102 4.163L9.31302 4.106L10.317 4.058C11.1775 4.02073 12.0387 4.00139 12.9 4ZM12.9 6C12.075 6 11.226 6.022 10.4 6.056L9.42202 6.103L8.48302 6.158L7.60102 6.218L6.79302 6.281C6.36822 6.31074 5.96771 6.49013 5.66268 6.78728C5.35766 7.08444 5.16786 7.48012 5.12702 7.904C5.01002 9.113 4.90002 10.618 4.90002 12C4.90002 13.382 5.01002 14.887 5.12702 16.096C5.21202 16.968 5.90402 17.646 6.79302 17.719L7.60102 17.781L8.48302 17.841L9.42202 17.897L10.4 17.944C11.226 17.978 12.075 18 12.9 18C13.725 18 14.574 17.978 15.4 17.944L16.378 17.897L17.317 17.842L18.199 17.782L19.007 17.719C19.4318 17.6893 19.8323 17.5099 20.1374 17.2127C20.4424 16.9156 20.6322 16.5199 20.673 16.096C20.79 14.887 20.9 13.382 20.9 12C20.9 10.618 20.79 9.113 20.673 7.904C20.6322 7.48012 20.4424 7.08444 20.1374 6.78728C19.8323 6.49013 19.4318 6.31074 19.007 6.281L18.199 6.219L17.317 6.159L16.378 6.103L15.4 6.056C14.5672 6.02025 13.7337 6.00158 12.9 6ZM10.9 9.575C10.9 9.47726 10.9238 9.38099 10.9694 9.29455C11.015 9.20812 11.0811 9.13413 11.1618 9.07903C11.2425 9.02394 11.3355 8.98939 11.4326 8.97841C11.5297 8.96742 11.628 8.98033 11.719 9.016L11.8 9.056L16 11.48C16.0837 11.5283 16.1544 11.596 16.2063 11.6774C16.2581 11.7589 16.2896 11.8517 16.2979 11.9478C16.3063 12.044 16.2913 12.1408 16.2542 12.23C16.2171 12.3192 16.1591 12.3981 16.085 12.46L16 12.52L11.8 14.945C11.7154 14.994 11.6201 15.0216 11.5223 15.0253C11.4246 15.0291 11.3274 15.0089 11.2393 14.9665C11.1511 14.9241 11.0747 14.8608 11.0166 14.7821C10.9585 14.7034 10.9206 14.6117 10.906 14.515L10.9 14.425V9.575Z" fill="white"/>
</svg>
